<?xml version="1.0" encoding="UTF-8" standalone="no"?>
<!DOCTYPE svg PUBLIC "-//W3C//DTD SVG 1.1//EN"
 "http://www.w3.org/Graphics/SVG/1.1/DTD/svg11.dtd">
<!-- Generated by graphviz version 2.40.1 (20161225.0304)
 -->
<!-- Title: %3 Pages: 1 -->
<svg width="1320pt" height="476pt"
 viewBox="0.00 0.00 1319.72 476.00" xmlns="http://www.w3.org/2000/svg" xmlns:xlink="http://www.w3.org/1999/xlink">
<g id="graph0" class="graph" transform="scale(1 1) rotate(0) translate(4 472)">
<title>%3</title>
<polygon fill="#ffffff" stroke="transparent" points="-4,4 -4,-472 1315.72,-472 1315.72,4 -4,4"/>
<!-- [root] aws_instance.kurs&#45;06&#45;jf (expand) -->
<g id="node1" class="node">
<title>[root] aws_instance.kurs&#45;06&#45;jf (expand)</title>
<polygon fill="none" stroke="#000000" points="956.5,-252 770.5,-252 770.5,-216 956.5,-216 956.5,-252"/>
<text text-anchor="middle" x="863.5" y="-230.3" font-family="Times,serif" font-size="14.00" fill="#000000">aws_instance.kurs&#45;06&#45;jf</text>
</g>
<!-- [root] aws_security_group.kurs&#45;06&#45;jf2 (expand) -->
<g id="node2" class="node">
<title>[root] aws_security_group.kurs&#45;06&#45;jf2 (expand)</title>
<polygon fill="none" stroke="#000000" points="679.5,-180 437.5,-180 437.5,-144 679.5,-144 679.5,-180"/>
<text text-anchor="middle" x="558.5" y="-158.3" font-family="Times,serif" font-size="14.00" fill="#000000">aws_security_group.kurs&#45;06&#45;jf2</text>
</g>
<!-- [root] aws_instance.kurs&#45;06&#45;jf (expand)&#45;&gt;[root] aws_security_group.kurs&#45;06&#45;jf2 (expand) -->
<g id="edge1" class="edge">
<title>[root] aws_instance.kurs&#45;06&#45;jf (expand)&#45;&gt;[root] aws_security_group.kurs&#45;06&#45;jf2 (expand)</title>
<path fill="none" stroke="#000000" d="M786.9293,-215.9243C743.7017,-205.7198 689.5463,-192.9355 644.816,-182.3762"/>
<polygon fill="#000000" stroke="#000000" points="645.3743,-178.9119 634.8376,-180.0207 643.766,-185.7246 645.3743,-178.9119"/>
</g>
<!-- [root] data.aws_ami.bionic (expand) -->
<g id="node6" class="node">
<title>[root] data.aws_ami.bionic (expand)</title>
<polygon fill="none" stroke="#000000" points="1162.5,-108 1000.5,-108 1000.5,-72 1162.5,-72 1162.5,-108"/>
<text text-anchor="middle" x="1081.5" y="-86.3" font-family="Times,serif" font-size="14.00" fill="#000000">data.aws_ami.bionic</text>
</g>
<!-- [root] aws_instance.kurs&#45;06&#45;jf (expand)&#45;&gt;[root] data.aws_ami.bionic (expand) -->
<g id="edge2" class="edge">
<title>[root] aws_instance.kurs&#45;06&#45;jf (expand)&#45;&gt;[root] data.aws_ami.bionic (expand)</title>
<path fill="none" stroke="#000000" d="M956.5853,-218.378C1000.852,-209.0953 1047.3818,-196.0042 1062.5,-180 1077.952,-163.6424 1082.1502,-138.0257 1082.8017,-118.2981"/>
<polygon fill="#000000" stroke="#000000" points="1086.3028,-118.0561 1082.8478,-108.0405 1079.3028,-118.0246 1086.3028,-118.0561"/>
</g>
<!-- [root] data.aws_subnet.private (expand) -->
<g id="node7" class="node">
<title>[root] data.aws_subnet.private (expand)</title>
<polygon fill="none" stroke="#000000" points="1053.5,-180 861.5,-180 861.5,-144 1053.5,-144 1053.5,-180"/>
<text text-anchor="middle" x="957.5" y="-158.3" font-family="Times,serif" font-size="14.00" fill="#000000">data.aws_subnet.private</text>
</g>
<!-- [root] aws_instance.kurs&#45;06&#45;jf (expand)&#45;&gt;[root] data.aws_subnet.private (expand) -->
<g id="edge3" class="edge">
<title>[root] aws_instance.kurs&#45;06&#45;jf (expand)&#45;&gt;[root] data.aws_subnet.private (expand)</title>
<path fill="none" stroke="#000000" d="M887.2202,-215.8314C898.9094,-206.8779 913.1688,-195.9558 925.7809,-186.2955"/>
<polygon fill="#000000" stroke="#000000" points="927.9769,-189.0222 933.7874,-180.1628 923.7203,-183.4651 927.9769,-189.0222"/>
</g>
<!-- [root] var.ssh_key_name -->
<g id="node11" class="node">
<title>[root] var.ssh_key_name</title>
<polygon fill="none" stroke="#000000" points="837.5,-180 697.5,-180 697.5,-144 843.5,-144 843.5,-174 837.5,-180"/>
<polyline fill="none" stroke="#000000" points="837.5,-180 837.5,-174 "/>
<polyline fill="none" stroke="#000000" points="843.5,-174 837.5,-174 "/>
<text text-anchor="middle" x="770.5" y="-158.3" font-family="Times,serif" font-size="14.00" fill="#000000">var.ssh_key_name</text>
</g>
<!-- [root] aws_instance.kurs&#45;06&#45;jf (expand)&#45;&gt;[root] var.ssh_key_name -->
<g id="edge4" class="edge">
<title>[root] aws_instance.kurs&#45;06&#45;jf (expand)&#45;&gt;[root] var.ssh_key_name</title>
<path fill="none" stroke="#000000" d="M840.0322,-215.8314C828.4673,-206.8779 814.3596,-195.9558 801.8817,-186.2955"/>
<polygon fill="#000000" stroke="#000000" points="804.0102,-183.5171 793.9603,-180.1628 799.725,-189.0521 804.0102,-183.5171"/>
</g>
<!-- [root] data.aws_vpc.kurs05&#45;vk (expand) -->
<g id="node8" class="node">
<title>[root] data.aws_vpc.kurs05&#45;vk (expand)</title>
<polygon fill="none" stroke="#000000" points="982.5,-108 792.5,-108 792.5,-72 982.5,-72 982.5,-108"/>
<text text-anchor="middle" x="887.5" y="-86.3" font-family="Times,serif" font-size="14.00" fill="#000000">data.aws_vpc.kurs05&#45;vk</text>
</g>
<!-- [root] aws_security_group.kurs&#45;06&#45;jf2 (expand)&#45;&gt;[root] data.aws_vpc.kurs05&#45;vk (expand) -->
<g id="edge5" class="edge">
<title>[root] aws_security_group.kurs&#45;06&#45;jf2 (expand)&#45;&gt;[root] data.aws_vpc.kurs05&#45;vk (expand)</title>
<path fill="none" stroke="#000000" d="M641.0959,-143.9243C688.0189,-133.6554 746.8787,-120.7743 795.303,-110.1768"/>
<polygon fill="#000000" stroke="#000000" points="796.135,-113.5777 805.1555,-108.0207 794.6384,-106.7395 796.135,-113.5777"/>
</g>
<!-- [root] aws_security_group_rule.egress_tcp_all (expand) -->
<g id="node3" class="node">
<title>[root] aws_security_group_rule.egress_tcp_all (expand)</title>
<polygon fill="none" stroke="#000000" points="303,-324 0,-324 0,-288 303,-288 303,-324"/>
<text text-anchor="middle" x="151.5" y="-302.3" font-family="Times,serif" font-size="14.00" fill="#000000">aws_security_group_rule.egress_tcp_all</text>
</g>
<!-- [root] aws_security_group_rule.egress_tcp_all (expand)&#45;&gt;[root] aws_security_group.kurs&#45;06&#45;jf2 (expand) -->
<g id="edge6" class="edge">
<title>[root] aws_security_group_rule.egress_tcp_all (expand)&#45;&gt;[root] aws_security_group.kurs&#45;06&#45;jf2 (expand)</title>
<path fill="none" stroke="#000000" d="M202.6347,-287.9081C277.8258,-261.3049 417.9527,-211.7268 498.1054,-183.3681"/>
<polygon fill="#000000" stroke="#000000" points="499.3146,-186.653 507.5745,-180.0179 496.9797,-180.0538 499.3146,-186.653"/>
</g>
<!-- [root] aws_security_group_rule.ingress_icmp_echo_request (expand) -->
<g id="node4" class="node">
<title>[root] aws_security_group_rule.ingress_icmp_echo_request (expand)</title>
<polygon fill="none" stroke="#000000" points="758,-324 359,-324 359,-288 758,-288 758,-324"/>
<text text-anchor="middle" x="558.5" y="-302.3" font-family="Times,serif" font-size="14.00" fill="#000000">aws_security_group_rule.ingress_icmp_echo_request</text>
</g>
<!-- [root] aws_security_group_rule.ingress_icmp_echo_request (expand)&#45;&gt;[root] aws_security_group.kurs&#45;06&#45;jf2 (expand) -->
<g id="edge7" class="edge">
<title>[root] aws_security_group_rule.ingress_icmp_echo_request (expand)&#45;&gt;[root] aws_security_group.kurs&#45;06&#45;jf2 (expand)</title>
<path fill="none" stroke="#000000" d="M558.5,-287.7623C558.5,-263.201 558.5,-219.2474 558.5,-190.3541"/>
<polygon fill="#000000" stroke="#000000" points="562.0001,-190.0896 558.5,-180.0896 555.0001,-190.0897 562.0001,-190.0896"/>
</g>
<!-- [root] aws_security_group_rule.ingress_tcp_22 (expand) -->
<g id="node5" class="node">
<title>[root] aws_security_group_rule.ingress_tcp_22 (expand)</title>
<polygon fill="none" stroke="#000000" points="1085,-324 776,-324 776,-288 1085,-288 1085,-324"/>
<text text-anchor="middle" x="930.5" y="-302.3" font-family="Times,serif" font-size="14.00" fill="#000000">aws_security_group_rule.ingress_tcp_22</text>
</g>
<!-- [root] aws_security_group_rule.ingress_tcp_22 (expand)&#45;&gt;[root] aws_security_group.kurs&#45;06&#45;jf2 (expand) -->
<g id="edge8" class="edge">
<title>[root] aws_security_group_rule.ingress_tcp_22 (expand)&#45;&gt;[root] aws_security_group.kurs&#45;06&#45;jf2 (expand)</title>
<path fill="none" stroke="#000000" d="M868.5373,-287.9579C836.3258,-278.1378 796.4814,-265.2987 761.5,-252 707.0072,-231.2837 646.0594,-203.6379 605.2969,-184.4778"/>
<polygon fill="#000000" stroke="#000000" points="606.6887,-181.2645 596.1514,-180.1621 603.7013,-187.595 606.6887,-181.2645"/>
</g>
<!-- [root] provider[&quot;registry.terraform.io/hashicorp/aws&quot;] -->
<g id="node10" class="node">
<title>[root] provider[&quot;registry.terraform.io/hashicorp/aws&quot;]</title>
<polygon fill="none" stroke="#000000" points="984.5,-36 657.0599,-18 984.5,0 1311.9401,-18 984.5,-36"/>
<text text-anchor="middle" x="984.5" y="-14.3" font-family="Times,serif" font-size="14.00" fill="#000000">provider[&quot;registry.terraform.io/hashicorp/aws&quot;]</text>
</g>
<!-- [root] data.aws_ami.bionic (expand)&#45;&gt;[root] provider[&quot;registry.terraform.io/hashicorp/aws&quot;] -->
<g id="edge9" class="edge">
<title>[root] data.aws_ami.bionic (expand)&#45;&gt;[root] provider[&quot;registry.terraform.io/hashicorp/aws&quot;]</title>
<path fill="none" stroke="#000000" d="M1057.0228,-71.8314C1044.3809,-62.4477 1028.8257,-50.9016 1015.3674,-40.9119"/>
<polygon fill="#000000" stroke="#000000" points="1017.4193,-38.0761 1007.3035,-34.9263 1013.2471,-43.6969 1017.4193,-38.0761"/>
</g>
<!-- [root] data.aws_subnet.private (expand)&#45;&gt;[root] data.aws_vpc.kurs05&#45;vk (expand) -->
<g id="edge10" class="edge">
<title>[root] data.aws_subnet.private (expand)&#45;&gt;[root] data.aws_vpc.kurs05&#45;vk (expand)</title>
<path fill="none" stroke="#000000" d="M939.836,-143.8314C931.5268,-135.2848 921.4736,-124.9443 912.4082,-115.6198"/>
<polygon fill="#000000" stroke="#000000" points="914.8821,-113.1435 905.4018,-108.4133 909.8631,-118.023 914.8821,-113.1435"/>
</g>
<!-- [root] data.aws_vpc.kurs05&#45;vk (expand)&#45;&gt;[root] provider[&quot;registry.terraform.io/hashicorp/aws&quot;] -->
<g id="edge11" class="edge">
<title>[root] data.aws_vpc.kurs05&#45;vk (expand)&#45;&gt;[root] provider[&quot;registry.terraform.io/hashicorp/aws&quot;]</title>
<path fill="none" stroke="#000000" d="M911.9772,-71.8314C924.6191,-62.4477 940.1743,-50.9016 953.6326,-40.9119"/>
<polygon fill="#000000" stroke="#000000" points="955.7529,-43.6969 961.6965,-34.9263 951.5807,-38.0761 955.7529,-43.6969"/>
</g>
<!-- [root] output.private_ip -->
<g id="node9" class="node">
<title>[root] output.private_ip</title>
<polygon fill="none" stroke="#000000" points="1236.5,-324 1102.5,-324 1102.5,-288 1242.5,-288 1242.5,-318 1236.5,-324"/>
<polyline fill="none" stroke="#000000" points="1236.5,-324 1236.5,-318 "/>
<polyline fill="none" stroke="#000000" points="1242.5,-318 1236.5,-318 "/>
<text text-anchor="middle" x="1172.5" y="-302.3" font-family="Times,serif" font-size="14.00" fill="#000000">output.private_ip</text>
</g>
<!-- [root] output.private_ip&#45;&gt;[root] aws_instance.kurs&#45;06&#45;jf (expand) -->
<g id="edge16" class="edge">
<title>[root] output.private_ip&#45;&gt;[root] aws_instance.kurs&#45;06&#45;jf (expand)</title>
<path fill="none" stroke="#000000" d="M1102.3831,-289.6621C1057.405,-279.1817 998.6633,-265.4944 950.6863,-254.3153"/>
<polygon fill="#000000" stroke="#000000" points="951.4651,-250.903 940.9317,-252.0423 949.8765,-257.7204 951.4651,-250.903"/>
</g>
<!-- [root] meta.count&#45;boundary (EachMode fixup) -->
<g id="node12" class="node">
<title>[root] meta.count&#45;boundary (EachMode fixup)</title>
<ellipse fill="none" stroke="#000000" cx="898.5" cy="-378" rx="224.4604" ry="18"/>
<text text-anchor="middle" x="898.5" y="-374.3" font-family="Times,serif" font-size="14.00" fill="#000000">[root] meta.count&#45;boundary (EachMode fixup)</text>
</g>
<!-- [root] meta.count&#45;boundary (EachMode fixup)&#45;&gt;[root] aws_security_group_rule.egress_tcp_all (expand) -->
<g id="edge12" class="edge">
<title>[root] meta.count&#45;boundary (EachMode fixup)&#45;&gt;[root] aws_security_group_rule.egress_tcp_all (expand)</title>
<path fill="none" stroke="#000000" d="M754.913,-364.1603C628.6253,-351.988 444.9435,-334.2837 313.4525,-321.6099"/>
<polygon fill="#000000" stroke="#000000" points="313.5736,-318.1054 303.2839,-320.6298 312.9019,-325.0731 313.5736,-318.1054"/>
</g>
<!-- [root] meta.count&#45;boundary (EachMode fixup)&#45;&gt;[root] aws_security_group_rule.ingress_icmp_echo_request (expand) -->
<g id="edge13" class="edge">
<title>[root] meta.count&#45;boundary (EachMode fixup)&#45;&gt;[root] aws_security_group_rule.ingress_icmp_echo_request (expand)</title>
<path fill="none" stroke="#000000" d="M818.7851,-361.1192C769.3678,-350.6544 705.6116,-337.153 653.5683,-326.1321"/>
<polygon fill="#000000" stroke="#000000" points="654.167,-322.6814 643.6589,-324.0336 652.7168,-329.5295 654.167,-322.6814"/>
</g>
<!-- [root] meta.count&#45;boundary (EachMode fixup)&#45;&gt;[root] aws_security_group_rule.ingress_tcp_22 (expand) -->
<g id="edge14" class="edge">
<title>[root] meta.count&#45;boundary (EachMode fixup)&#45;&gt;[root] aws_security_group_rule.ingress_tcp_22 (expand)</title>
<path fill="none" stroke="#000000" d="M906.575,-359.8314C910.1102,-351.8771 914.336,-342.369 918.2456,-333.5723"/>
<polygon fill="#000000" stroke="#000000" points="921.4532,-334.9729 922.3163,-324.4133 915.0565,-332.1299 921.4532,-334.9729"/>
</g>
<!-- [root] meta.count&#45;boundary (EachMode fixup)&#45;&gt;[root] output.private_ip -->
<g id="edge15" class="edge">
<title>[root] meta.count&#45;boundary (EachMode fixup)&#45;&gt;[root] output.private_ip</title>
<path fill="none" stroke="#000000" d="M964.1298,-360.7542C1003.1177,-350.5092 1052.8045,-337.4528 1093.8793,-326.6594"/>
<polygon fill="#000000" stroke="#000000" points="1094.8,-330.0364 1103.5821,-324.1098 1093.0209,-323.2663 1094.8,-330.0364"/>
</g>
<!-- [root] provider[&quot;registry.terraform.io/hashicorp/aws&quot;] (close) -->
<g id="node13" class="node">
<title>[root] provider[&quot;registry.terraform.io/hashicorp/aws&quot;] (close)</title>
<ellipse fill="none" stroke="#000000" cx="362.5" cy="-378" rx="293.548" ry="18"/>
<text text-anchor="middle" x="362.5" y="-374.3" font-family="Times,serif" font-size="14.00" fill="#000000">[root] provider[&quot;registry.terraform.io/hashicorp/aws&quot;] (close)</text>
</g>
<!-- [root] provider[&quot;registry.terraform.io/hashicorp/aws&quot;] (close)&#45;&gt;[root] aws_instance.kurs&#45;06&#45;jf (expand) -->
<g id="edge17" class="edge">
<title>[root] provider[&quot;registry.terraform.io/hashicorp/aws&quot;] (close)&#45;&gt;[root] aws_instance.kurs&#45;06&#45;jf (expand)</title>
<path fill="none" stroke="#000000" d="M352.3073,-359.6714C342.636,-339.5357 331.9639,-307.475 349.5,-288 376.4348,-258.0873 618.1542,-243.5773 760.3175,-237.574"/>
<polygon fill="#000000" stroke="#000000" points="760.5307,-241.0683 770.3769,-237.1564 760.2402,-234.0743 760.5307,-241.0683"/>
</g>
<!-- [root] provider[&quot;registry.terraform.io/hashicorp/aws&quot;] (close)&#45;&gt;[root] aws_security_group_rule.egress_tcp_all (expand) -->
<g id="edge18" class="edge">
<title>[root] provider[&quot;registry.terraform.io/hashicorp/aws&quot;] (close)&#45;&gt;[root] aws_security_group_rule.egress_tcp_all (expand)</title>
<path fill="none" stroke="#000000" d="M310.3427,-360.2022C281.2711,-350.2821 244.866,-337.8595 214.2449,-327.4106"/>
<polygon fill="#000000" stroke="#000000" points="215.1174,-324.0102 204.5229,-324.0931 212.8567,-330.6351 215.1174,-324.0102"/>
</g>
<!-- [root] provider[&quot;registry.terraform.io/hashicorp/aws&quot;] (close)&#45;&gt;[root] aws_security_group_rule.ingress_icmp_echo_request (expand) -->
<g id="edge19" class="edge">
<title>[root] provider[&quot;registry.terraform.io/hashicorp/aws&quot;] (close)&#45;&gt;[root] aws_security_group_rule.ingress_icmp_echo_request (expand)</title>
<path fill="none" stroke="#000000" d="M410.9495,-360.2022C437.8374,-350.325 471.4787,-337.967 499.8459,-327.5464"/>
<polygon fill="#000000" stroke="#000000" points="501.0667,-330.8267 509.2465,-324.0931 498.6529,-324.256 501.0667,-330.8267"/>
</g>
<!-- [root] provider[&quot;registry.terraform.io/hashicorp/aws&quot;] (close)&#45;&gt;[root] aws_security_group_rule.ingress_tcp_22 (expand) -->
<g id="edge20" class="edge">
<title>[root] provider[&quot;registry.terraform.io/hashicorp/aws&quot;] (close)&#45;&gt;[root] aws_security_group_rule.ingress_tcp_22 (expand)</title>
<path fill="none" stroke="#000000" d="M490.6785,-361.752C575.9877,-350.9382 688.4655,-336.6804 778.3197,-325.2905"/>
<polygon fill="#000000" stroke="#000000" points="778.8464,-328.7518 788.3268,-324.022 777.966,-321.8074 778.8464,-328.7518"/>
</g>
<!-- [root] root -->
<g id="node14" class="node">
<title>[root] root</title>
<ellipse fill="none" stroke="#000000" cx="630.5" cy="-450" rx="58.4896" ry="18"/>
<text text-anchor="middle" x="630.5" y="-446.3" font-family="Times,serif" font-size="14.00" fill="#000000">[root] root</text>
</g>
<!-- [root] root&#45;&gt;[root] meta.count&#45;boundary (EachMode fixup) -->
<g id="edge21" class="edge">
<title>[root] root&#45;&gt;[root] meta.count&#45;boundary (EachMode fixup)</title>
<path fill="none" stroke="#000000" d="M674.7547,-438.1107C715.3686,-427.1995 776.3389,-410.8194 824.3811,-397.9125"/>
<polygon fill="#000000" stroke="#000000" points="825.3661,-401.2721 834.1156,-395.2973 823.5499,-394.5118 825.3661,-401.2721"/>
</g>
<!-- [root] root&#45;&gt;[root] provider[&quot;registry.terraform.io/hashicorp/aws&quot;] (close) -->
<g id="edge22" class="edge">
<title>[root] root&#45;&gt;[root] provider[&quot;registry.terraform.io/hashicorp/aws&quot;] (close)</title>
<path fill="none" stroke="#000000" d="M586.2453,-438.1107C545.9095,-427.2742 485.4954,-411.0435 437.6079,-398.1782"/>
<polygon fill="#000000" stroke="#000000" points="438.4651,-394.7845 427.8995,-395.57 436.6489,-401.5448 438.4651,-394.7845"/>
</g>
</g>
</svg>
